<?xml version="1.0" encoding="utf-8"?>
<svg version="1.1" xmlns="http://www.w3.org/2000/svg" xmlns:xlink="http://www.w3.org/1999/xlink" x="0px" y="0px"
    viewBox="0 0 25.6575928 25.6576538" style="enable-background:new 0 0 25.6575928 25.6576538;" xml:space="preserve">
<style type="text/css">
.st0{display:none;}
.st1{fill:#005846;}
.st2{fill:#12894B;}
.st3{fill:#7AA032;}
.st4{fill:#CE202C;}
.st5{fill:#0A6043;}
.st6{fill:#E5542C;}
.st7{fill:#FFBF31;}
.st8{fill:#E2F7EF;}
</style>
    <g id="Layer_1">
<rect x="-2.605547" y="-1.9925947" class="st0" width="30.8686829" height="29.6428013"/>
        <g>
<path class="st1" d="M11.423645,0.0805054"/>
            <line class="st1" x1="1.0435181" y1="7.7618408" x2="1.0435181" y2="7.7618408"/>
            <line class="st1" x1="7.819519" y1="24.6419067" x2="7.819519" y2="24.6419067"/>
            <line class="st1" x1="4.9375" y1="22.9293213" x2="4.9375" y2="22.9293213"/>
            <line class="st1" x1="1.1633911" y1="18.1445313" x2="1.1633911" y2="18.1445313"/>
            <line class="st1" x1="0.8387451" y1="8.2981567" x2="0.8387451" y2="8.2981567"/>
            <line class="st1" x1="8.3667603" y1="24.8439941" x2="8.3667603" y2="24.8439941"/>
            <path class="st2" d="M24.6135254,7.7607422C22.6481323,3.1969604,18.1132202,0,12.8287964,0
c-0.4753418,0-0.9432373,0.0301514-1.4051514,0.0805054l1.0164185,7.6838989
c0.1282349-0.0095825,0.2563477-0.0195923,0.3869629-0.0195923c2.0466309,0,3.8082886,1.2008667,4.6326294,2.9337769
L24.6135254,7.7607422z"/>
            <path class="st3" d="M10.8565063,0.1670532c-4.4208374,0.68396-8.0979004,3.6112671-9.8129883,7.5947876l7.151001,2.9165649
c0.692627-1.4559326,2.0464478-2.5339355,3.6766357-2.8413086L10.8565063,0.1670532z"/>
            <path class="st4" d="M5.3970947,23.2730103c0.7532349,0.5369873,1.5603638,1.0028687,2.4224243,1.3688965l2.8418579-7.1154175
c-0.2353516-0.1098633-0.4630737-0.2332153-0.6773682-0.3760986L5.3970947,23.2730103z"/>
            <path class="st5" d="M17.6772461,11.2093506c0.1801147,0.5237427,0.2827148,1.0835571,0.2827148,1.668396
c0,2.0598755-1.2162476,3.8314209-2.9672241,4.6487427l2.8421021,7.1169434
c4.5975952-1.9506226,7.8227539-6.5057373,7.8227539-11.8146362c0-1.5978394-0.305481-3.1210327-0.8392334-4.5319214
L17.6772461,11.2093506z"/>
            <path class="st6" d="M8.2265625,15.1436157l-7.0631714,3.0009155c0.8605347,1.8850098,2.1606445,3.5223999,3.7741089,4.78479
l4.5879517-6.1239624C8.9844971,16.3500977,8.5425415,15.7839355,8.2265625,15.1436157z"/>
            <path class="st7" d="M8.0025024,14.6162109c-0.1960449-0.5436401-0.3084106-1.1272583-0.3084106-1.7384644
c0-0.5848389,0.1025391-1.1445923,0.2827148-1.6682129l-7.1380615-2.911377C0.3052979,9.7087402,0,11.2314453,0,12.8287964
c0,1.6950684,0.3366699,3.3094482,0.9338989,4.7906494L8.0025024,14.6162109z"/>
</g>
        <path class="st8" d="M14.4767456,17.7354126c0,0-0.3624878-0.1712036-0.8324585-0.7011719
c-0.4700317-0.5300293-0.4475708-1.4388428-0.4475708-1.4388428v-4.2600098h-0.1199951v-0.3599854
c0.6700439,0.0499878,1.4400024,0.3400269,2,0.5100098l-0.8999634,2.539978h-0.1700439
c0.1700439,0.5599976,0.7000122,0.9700317,1.3099976,0.9700317c0.6200562,0,1.1500244-0.4100342,1.3200073-0.9700317h-0.1699829
l-0.8499756-2.4199829c0.5899658,0.0100098,0.7399902-0.2999878,0.8099976-0.4099731
c0.1099854-0.1500244-0.1100464-0.2999878-0.2300415-0.2000122s-0.4400024,0.3099976-1.039978,0.0299683
c-0.5499878-0.2599487-1.5200195-0.6999512-2.0800171-0.7799683V9.6654053c0-0.1300049-0.1099854-0.2399902-0.2399902-0.2399902
s-0.2399902,0.1099854-0.2399902,0.2399902v0.5800171c-0.5599976,0.0800171-1.5300293,0.5200195-2.0800171,0.7799683
c-0.5999756,0.2800293-0.9199829,0.0700073-1.039978-0.0299683s-0.3400269,0.0499878-0.2300415,0.2000122
c0.0700073,0.1099854,0.2200317,0.4199829,0.8099976,0.4099731l-0.8499756,2.4199829H9.0367432
c0.1699829,0.5599976,0.6999512,0.9700317,1.3200073,0.9700317c0.6099854,0,1.1399536-0.4100342,1.3099976-0.9700317h-0.1700439
l-0.8999634-2.539978c0.5599976-0.1699829,1.3299561-0.460022,2-0.5100098v0.3599854h-0.1199951v4.2600098
c0,0,0.0224609,0.9088135-0.4475708,1.4388428c-0.4699707,0.5299683-0.8324585,0.7011719-0.8324585,0.7011719l-2.8299561,7.1085815
c1.3915405,0.5171509,2.8904419,0.8136597,4.4620361,0.8136597s3.0863647-0.2965088,4.4779053-0.8136597L14.4767456,17.7354126z
 M15.3167114,11.8054199l0.7900391,2.2199707h-1.5700073L15.3167114,11.8054199z M11.1367188,14.0253906H9.5667114
l0.7900391-2.2199707L11.1367188,14.0253906z"/>
</g>
</svg>