<svg xmlns="http://www.w3.org/2000/svg" viewBox="0 0 17.282 17.282"><path d="M8.652 3.562a5.13 5.13 0 0 1 4.633 2.934l3.264-1.331A8.64 8.64 0 0 0 8.641 0a8.72 8.72 0 0 0-.844.043l.468 3.539.387-.02z" fill="#12894b"/><path d="M7.696 3.654L7.229.125C4.316.605 1.895 2.535.737 5.157L4.02 6.496c.693-1.456 2.046-2.534 3.677-2.841z" fill="#7aa032"/><path d="M5.809,12.968l-2.081,2.778c.46.319.952.594,1.471.82l1.287-3.222c-.235-.11-.463-.233-.677-.376Z" fill="#ce202c"/><path d="M13.785 8.695a5.13 5.13 0 0 1-2.967 4.649l1.283 3.213c3.049-1.335 5.181-4.374 5.181-7.915 0-1.035-.191-2.022-.525-2.942l-3.255 1.327c.18.524.283 1.084.283 1.668z" fill="#0a6043"/><path d="M4.052 10.961L.835 12.328c.569 1.203 1.403 2.254 2.434 3.074l2.082-2.779c-.541-.455-.983-1.021-1.299-1.662z" fill="#e5542c"/><path d="M3.519 8.695c0-.585.103-1.145.283-1.668L.528 5.691C.193 6.613 0 7.603 0 8.641c0 1.117.219 2.182.605 3.162l3.222-1.369a5.11 5.11 0 0 1-.308-1.738z" fill="#ffbf31"/><path d="M9.469 12.852c-.47-.53-.448-1.439-.448-1.439l-.002-3.808c0-.574-.12-.635-.12-.635v-.474c.67.05 1.341.491 1.901.661l-.9 2.209h-.17a1.38 1.38 0 0 0 2.63 0h-.17l-.85-2.089c.59.01.74-.3.81-.41.11-.15-.11-.3-.23-.2s-.44.31-1.04.03c-.55-.26-1.421-.705-1.981-.785l.002-.931c0-.13-.11-.24-.24-.24s-.24.11-.24.24l-.002.931c-.56.08-1.459.525-2.009.785-.6.28-.92.07-1.04-.03s-.34.05-.23.2c.07.11.22.42.81.41L5.1 9.366h-.17a1.38 1.38 0 0 0 2.63 0h-.17l-.9-2.209c.56-.17 1.259-.611 1.929-.661v.474s-.12.065-.12.635l.002 3.808s.022.909-.448 1.439-.832.701-.832.701l-1.282 3.22a8.61 8.61 0 0 0 2.901.51c1.033 0 2.019-.191 2.937-.523l-1.276-3.206s-.362-.171-.832-.701zm1.571-5.375l.79 1.889h-1.57l.78-1.889zM7.03 9.366H5.46l.79-1.889.78 1.889z" fill="#e2f7ef"/></svg>