<svg xmlns="http://www.w3.org/2000/svg" viewBox="0 0 25.658 25.658" xmlns:v="https://vecta.io/nano"><path d="M1.044 7.762h0m6.776 16.88h0m-2.882-1.713h0m-3.775-4.784h0M.839 8.298h0m7.528 16.546h0" fill="#005846"/><path d="M24.614 7.761C22.648 3.197 18.113 0 12.829 0c-.475 0-.943.03-1.405.081l1.016 7.684c.128-.01.256-.02.387-.02 2.047 0 3.808 1.201 4.633 2.934l7.154-2.918z" fill="#12894b"/><path d="M10.857.167C6.436.851 2.759 3.778 1.044 7.762l7.151 2.917c.693-1.456 2.046-2.534 3.677-2.841L10.857.167z" fill="#7aa032"/><path d="M5.397 23.273a12.79 12.79 0 0 0 2.422 1.369l2.842-7.115c-.235-.11-.463-.233-.677-.376l-4.587 6.123z" fill="#ce202c"/><path d="M17.677 11.209c.18.524.283 1.084.283 1.668 0 2.06-1.216 3.831-2.967 4.649l2.842 7.117c4.598-1.951 7.823-6.506 7.823-11.815 0-1.598-.305-3.121-.839-4.532l-7.141 2.912z" fill="#0a6043"/><path d="M8.227 15.144l-7.063 3.001c.861 1.885 2.161 3.522 3.774 4.785l4.588-6.124c-.541-.455-.983-1.021-1.299-1.662z" fill="#e5542c"/><path d="M8.003 14.616a5.11 5.11 0 0 1-.308-1.738c0-.585.103-1.145.283-1.668L.839 8.298C.305 9.709 0 11.231 0 12.829c0 1.695.337 3.309.934 4.791l7.069-3.003z" fill="#ffbf31"/><path d="M14.477 17.735s-.362-.171-.832-.701-.448-1.439-.448-1.439v-4.26h-.12v-.36c.67.05 1.44.34 2 .51l-.9 2.54h-.17a1.38 1.38 0 0 0 2.63 0h-.17l-.85-2.42c.59.01.74-.3.81-.41.11-.15-.11-.3-.23-.2s-.44.31-1.04.03c-.55-.26-1.52-.7-2.08-.78v-.58c0-.13-.11-.24-.24-.24s-.24.11-.24.24v.58c-.56.08-1.53.52-2.08.78-.6.28-.92.07-1.04-.03s-.34.05-.23.2c.07.11.22.42.81.41l-.85 2.42h-.17a1.38 1.38 0 0 0 2.63 0h-.17l-.9-2.54c.56-.17 1.33-.46 2-.51v.36h-.12v4.26s.022.909-.448 1.439-.832.701-.832.701l-2.83 7.109c1.392.517 2.89.814 4.462.814a12.86 12.86 0 0 0 4.478-.814l-2.83-7.109zm.84-5.93l.79 2.22h-1.57l.78-2.22zm-4.18 2.22h-1.57l.79-2.22.78 2.22z" fill="#22302b"/></svg>