<?xml version="1.0" encoding="UTF-8" standalone="no"?>
<svg
   version="1.1"
   viewBox="0 0 286.2 118.1"
   id="svg13"
   width="193.7"
   height="80"
   xmlns="http://www.w3.org/2000/svg">
  <defs
     id="defs1">
    <style
       id="style1">
      .st0 {
        fill: #4285f4;
      }

      .st1 {
        fill: #a6a6a6;
      }

      .st2 {
        stroke: #fff;
        stroke-miterlimit: 10;
        stroke-width: .2px;
      }

      .st2, .st3 {
        fill: #fff;
      }

      .st4 {
        fill: #34a853;
      }

      .st5 {
        fill: #fbbc04;
      }

      .st6 {
        fill: #ea4335;
      }
    </style>
  </defs>
  <rect
     x="22.379999"
     width="239.17"
     height="70.870003"
     rx="8.8599997"
     ry="8.8599997"
     id="rect1"
     y="24.509998" />
  <path
     class="st1"
     d="m 252.70001,25.929999 c 4.1,0 7.44,3.34 7.44,7.44 v 53.15 c 0,4.1 -3.34,7.44 -7.44,7.44 H 31.239998 c -4.1,0 -7.44,-3.34 -7.44,-7.44 v -53.15 c 0,-4.1 3.34,-7.44 7.44,-7.44 H 252.70001 m 0,-1.42 H 31.239998 c -4.87,0 -8.86,3.99 -8.86,8.86 v 53.15 c 0,4.87 3.99,8.86 8.86,8.86 H 252.70001 c 4.87,0 8.86,-3.99 8.86,-8.86 v -53.15 c 0,-4.87 -3.99,-8.86 -8.86,-8.86 z"
     id="path1" />
  <g
     id="g8"
     transform="translate(22.489998,24.509999)">
    <path
       class="st2"
       d="m 83.9,18.15 c 0,1.48 -0.44,2.67 -1.32,3.55 -1,1.05 -2.3,1.57 -3.9,1.57 -1.6,0 -2.84,-0.53 -3.91,-1.59 -1.07,-1.06 -1.61,-2.38 -1.61,-3.96 0,-1.58 0.54,-2.89 1.61,-3.96 1.07,-1.06 2.38,-1.6 3.91,-1.6 0.76,0 1.49,0.15 2.18,0.44 0.69,0.3 1.25,0.69 1.66,1.19 l -0.93,0.94 c -0.7,-0.84 -1.67,-1.26 -2.91,-1.26 -1.12,0 -2.09,0.39 -2.9,1.18 -0.81,0.79 -1.22,1.81 -1.22,3.06 0,1.25 0.41,2.28 1.22,3.06 0.82,0.79 1.78,1.18 2.9,1.18 1.19,0 2.18,-0.4 2.97,-1.19 0.51,-0.52 0.81,-1.23 0.89,-2.15 h -3.86 v -1.28 h 5.15 c 0.05,0.28 0.07,0.54 0.07,0.8 z"
       id="path2" />
    <path
       class="st2"
       d="m 92.07,13.71 h -4.84 v 3.37 h 4.37 v 1.28 h -4.37 v 3.37 h 4.84 v 1.31 H 85.86 V 12.41 h 6.21 v 1.31 0 z"
       id="path3" />
    <path
       class="st2"
       d="M 97.83,23.03 H 96.46 V 13.71 H 93.49 V 12.4 h 7.3 v 1.31 h -2.97 c 0,0 0,9.32 0,9.32 z"
       id="path4" />
    <path
       class="st2"
       d="M 106.08,23.03 V 12.4 h 1.36 v 10.63 z"
       id="path5" />
    <path
       class="st2"
       d="m 113.51,23.03 h -1.37 v -9.32 h -2.97 V 12.4 h 7.3 v 1.31 h -2.97 c 0,0 0,9.32 0,9.32 z"
       id="path6" />
    <path
       class="st2"
       d="m 130.3,21.66 c -1.05,1.08 -2.34,1.61 -3.9,1.61 -1.56,0 -2.85,-0.54 -3.9,-1.61 -1.05,-1.07 -1.57,-2.39 -1.57,-3.94 0,-1.55 0.52,-2.87 1.57,-3.94 1.04,-1.08 2.34,-1.61 3.9,-1.61 1.56,0 2.84,0.54 3.89,1.62 1.05,1.08 1.57,2.39 1.57,3.93 0,1.54 -0.52,2.87 -1.57,3.94 z m -6.78,-0.89 c 0.79,0.8 1.75,1.19 2.89,1.19 1.14,0 2.1,-0.4 2.89,-1.19 0.79,-0.8 1.18,-1.81 1.18,-3.05 0,-1.24 -0.4,-2.26 -1.18,-3.05 -0.78,-0.8 -1.75,-1.19 -2.89,-1.19 -1.14,0 -2.1,0.4 -2.89,1.19 -0.78,0.8 -1.18,1.81 -1.18,3.05 0,1.24 0.4,2.26 1.18,3.05 z"
       id="path7" />
    <path
       class="st2"
       d="M 133.79,23.03 V 12.4 h 1.66 l 5.17,8.27 h 0.06 l -0.06,-2.05 V 12.4 h 1.37 v 10.63 h -1.43 l -5.41,-8.67 h -0.06 l 0.06,2.05 v 6.62 h -1.37 v 0 z"
       id="path8" />
  </g>
  <path
     class="st3"
     d="m 143.10001,63.049999 c -4.17,0 -7.56,3.17 -7.56,7.53 0,4.36 3.4,7.53 7.56,7.53 4.16,0 7.56,-3.2 7.56,-7.53 0,-4.33 -3.4,-7.53 -7.56,-7.53 z m 0,12.1 c -2.28,0 -4.25,-1.88 -4.25,-4.57 0,-2.69 1.97,-4.57 4.25,-4.57 2.28,0 4.25,1.85 4.25,4.57 0,2.72 -1.97,4.57 -4.25,4.57 z m -16.5,-12.1 c -4.17,0 -7.56,3.17 -7.56,7.53 0,4.36 3.4,7.53 7.56,7.53 4.16,0 7.56,-3.2 7.56,-7.53 0,-4.33 -3.4,-7.53 -7.56,-7.53 z m 0,12.1 c -2.28,0 -4.25,-1.88 -4.25,-4.57 0,-2.69 1.97,-4.57 4.25,-4.57 2.28,0 4.25,1.85 4.25,4.57 0,2.72 -1.97,4.57 -4.25,4.57 z m -19.63,-9.79 v 3.2 h 7.65 c -0.23,1.8 -0.83,3.11 -1.74,4.03 -1.11,1.11 -2.85,2.34 -5.91,2.34 -4.71,0 -8.390012,-3.8 -8.390012,-8.51 0,-4.71 3.680012,-8.51 8.390012,-8.51 2.54,0 4.4,1 5.76,2.28 l 2.26,-2.26 c -1.91,-1.83 -4.45,-3.22 -8.02,-3.22 -6.45,0 -11.870012,5.25 -11.870012,11.7 0,6.45 5.420012,11.7 11.870012,11.7 3.48,0 6.11,-1.14 8.16,-3.28 2.11,-2.11 2.77,-5.08 2.77,-7.48 0,-0.74 -0.06,-1.43 -0.17,-2 h -10.76 v 0 z m 80.27,2.48 c -0.63,-1.68 -2.54,-4.8 -6.45,-4.8 -3.91,0 -7.11,3.05 -7.11,7.53 0,4.22 3.2,7.53 7.48,7.53 3.45,0 5.45,-2.11 6.28,-3.34 l -2.57,-1.71 c -0.86,1.26 -2.03,2.08 -3.71,2.08 -1.68,0 -2.88,-0.77 -3.65,-2.28 l 10.08,-4.17 -0.34,-0.86 v 0 z m -10.28,2.51 c -0.09,-2.91 2.26,-4.4 3.94,-4.4 1.31,0 2.43,0.66 2.8,1.6 z m -8.19,7.31 h 3.31 v -22.15 h -3.31 z m -5.42,-12.93 h -0.11 c -0.74,-0.88 -2.17,-1.68 -3.97,-1.68 -3.77,0 -7.22,3.31 -7.22,7.56 0,4.25 3.45,7.51 7.22,7.51 1.8,0 3.22,-0.8 3.97,-1.71 h 0.11 v 1.08 c 0,2.88 -1.54,4.42 -4.03,4.42 -2.03,0 -3.28,-1.46 -3.8,-2.68 l -2.88,1.2 c 0.83,2 3.03,4.45 6.68,4.45 3.88,0 7.16,-2.28 7.16,-7.85 v -13.53 h -3.14 v 1.23 z m -3.8,10.42 c -2.28,0 -4.2,-1.91 -4.2,-4.54 0,-2.63 1.91,-4.6 4.2,-4.6 2.29,0 4.03,1.94 4.03,4.6 0,2.66 -1.77,4.54 -4.03,4.54 z m 43.2,-19.64 h -7.92 v 22.15 h 3.31 v -8.39 h 4.62 c 3.66,0 7.27,-2.65 7.27,-6.88 0,-4.23 -3.6,-6.88 -7.27,-6.88 z m 0.08,10.68 h -4.7 v -7.59 h 4.7 c 2.47,0 3.87,2.05 3.87,3.8 0,1.75 -1.4,3.8 -3.87,3.8 v 0 z m 20.43,-3.18 c -2.39,0 -4.87,1.05 -5.9,3.39 l 2.94,1.23 c 0.63,-1.23 1.79,-1.62 3.02,-1.62 1.71,0 3.45,1.03 3.48,2.85 v 0.23 c -0.6,-0.34 -1.88,-0.86 -3.45,-0.86 -3.16,0 -6.38,1.74 -6.38,4.99 0,2.96 2.59,4.87 5.5,4.87 2.22,0 3.45,-1 4.22,-2.16 h 0.11 v 1.71 h 3.19 v -8.49 c 0,-3.93 -2.94,-6.13 -6.73,-6.13 v 0 z m -0.39,12.13 c -1.08,0 -2.59,-0.54 -2.59,-1.88 0,-1.71 1.88,-2.37 3.5,-2.37 1.45,0 2.14,0.31 3.02,0.74 -0.26,2.05 -2.02,3.5 -3.93,3.5 z m 18.74,-11.65 -3.79,9.6 h -0.11 l -3.93,-9.6 h -3.56 l 5.9,13.42 -3.36,7.47 h 3.45 l 9.09,-20.89 h -3.68 z m -29.77,14.17 h 3.31 v -22.15 h -3.31 z"
     id="path9" />
  <g
     id="g13"
     transform="translate(22.489998,24.509999)">
    <path
       class="st6"
       d="M 36.6,34.41 17.74,54.43 c 0,0 0,0 0,0.01 0.58,2.17 2.56,3.77 4.92,3.77 0.94,0 1.83,-0.26 2.58,-0.7 L 25.3,57.47 46.53,45.22 36.59,34.4 Z"
       id="path10" />
    <path
       class="st5"
       d="m 55.68,31 h -0.02 c 0,0 -9.17,-5.33 -9.17,-5.33 l -10.33,9.19 10.36,10.36 9.12,-5.26 c 1.6,-0.86 2.68,-2.55 2.68,-4.49 0,-1.94 -1.07,-3.61 -2.65,-4.47 v 0 z"
       id="path11" />
    <path
       class="st0"
       d="m 17.73,16.44 c -0.11,0.42 -0.17,0.86 -0.17,1.31 v 35.38 c 0,0.45 0.06,0.89 0.17,1.31 L 37.24,34.93 Z"
       id="path12" />
    <path
       class="st4"
       d="M 36.74,35.43 46.5,25.67 25.29,13.37 c -0.77,-0.46 -1.67,-0.73 -2.63,-0.73 -2.36,0 -4.34,1.6 -4.92,3.78 v 0 c 0,0 19,19 19,19 v 0 z"
       id="path13" />
  </g>
</svg>
